PathFileType	4	(X/Y/Z)	C:/Users/opensim2020/Desktop/walking_exp_matlab/subject06_walking15_straight_04.trc																																																																																																																																											
DataRate	CameraRate	NumFrames	NumMarkers	Units	OrigDataRate	OrigDataStartFrame	OrigNumFrames																																																																																																																																							
100	100	8	47	mm	100	2881	157																																																																																																																																							
Frame#	Time	LFHD			RFHD			LBHD			RBHD			C7			T10			CLAV			STRN			RBAK			LSHO			LUPA			LELB			LFRM			LWRA			LWRB			LFIN			RSHO			RUPA			RELB			RFRM			RWRA			RWRB			RFIN			LASI			RASI			LPSI			RPSI			LTHI			LKNE			LTIB			LANK			LHEE			LTOE			RTHI			RKNE			RTIB			RANK			RHEE			RTOE			*39			*40			*41			*42			*43			*44			*45			*46		
		X1	Y1	Z1	X2	Y2	Z2	X3	Y3	Z3	X4	Y4	Z4	X5	Y5	Z5	X6	Y6	Z6	X7	Y7	Z7	X8	Y8	Z8	X9	Y9	Z9	X10	Y10	Z10	X11	Y11	Z11	X12	Y12	Z12	X13	Y13	Z13	X14	Y14	Z14	X15	Y15	Z15	X16	Y16	Z16	X17	Y17	Z17	X18	Y18	Z18	X19	Y19	Z19	X20	Y20	Z20	X21	Y21	Z21	X22	Y22	Z22	X23	Y23	Z23	X24	Y24	Z24	X25	Y25	Z25	X26	Y26	Z26	X27	Y27	Z27	X28	Y28	Z28	X29	Y29	Z29	X30	Y30	Z30	X31	Y31	Z31	X32	Y32	Z32	X33	Y33	Z33	X34	Y34	Z34	X35	Y35	Z35	X36	Y36	Z36	X37	Y37	Z37	X38	Y38	Z38	X39	Y39	Z39	X40	Y40	Z40	X41	Y41	Z41	X42	Y42	Z42	X43	Y43	Z43	X44	Y44	Z44	X45	Y45	Z45	X46	Y46	Z46	X47	Y47	Z47
																																																																																																																																														
20	0.19	-824.83075	1639.91382	892.95996	-796.81854	1632.81763	1022.07465	-952.96436	1581.19629	922.12476	-923.79688	1579.39478	1048.3064	-938.78741	1428.14783	967.13269	-973.29303	1099.16211	972.31677	-826.85229	1352.729	961.32043	-787.63879	1179.59888	948.94031	-1009.55078	1258.13196	1042.25293	-887.97308	1387.91101	803.3418	-853.64575	1194.02136	720.37317	-823.49402	1086.30884	702.03217	-710.61261	989.63733	690.65161	-593.49713	956.17877	746.56189	-626.48669	906.47723	708.79199	-539.16364	886.01215	713.85284	-867.01398	1380.25647	1125.30139	-939.14972	1193.66553	1211.96265	-955.18054	1072.25781	1226.3103	-966.28229	952.72742	1246.54333	-938.44977	802.01837	1219.45703	-992.19269	817.58514	1259.84473	-976.25122	734.15405	1262.39148	-802.51422	938.36145	855.87323	-784.72913	953.65009	1076.25159	-958.24182	964.93365	899.58026	-938.84534	969.94604	1066.5802	-914.45276	629.10828	814.58258	-952.38062	468.05063	837.64709	-1078.5304	240.59181	847.30042	-1147.1748	82.61884	894.01013	-1190.90869	78.74696	939.03796	-1012.69977	33.05815	893.80255	-770.09631	625.57483	1153.92896	-726.81128	508.9585	1125.95496	-687.20673	249.68875	1136.21228	-630.47644	69.37247	1099.8175	-656.53772	34.38429	1053.55432	-473.28848	76.29726	1101.01831	-911.63647	1677.00037	971.2345	NaN	NaN	NaN	NaN	NaN	NaN	NaN	NaN	NaN	NaN	NaN	NaN	NaN	NaN	NaN	NaN	NaN	NaN	NaN	NaN	NaN
21	0.2	-814.01367	1639.229	895.05377	-785.94788	1631.91528	1024.15662	-942.20636	1580.54004	924.21039	-913.09338	1578.59412	1050.5011	-928.23993	1427.245	969.11572	-961.72253	1098.23132	974.27246	-816.04547	1352.0481	963.24933	-776.25336	1179.13977	950.86719	-998.60126	1257.08582	1043.98108	-877.24713	1387.0929	805.31793	-843.0683	1193.29309	722.34064	-813.20197	1085.55554	703.9848	-699.59735	990.0481	692.85919	-582.28766	958.08423	749.10413	-614.49506	907.94891	711.22357	-526.86029	888.34125	716.87854	-856.42517	1379.44128	1127.20959	-928.0946	1192.50842	1213.67749	-943.58875	1071.06958	1227.99341	-954.37921	951.48248	1248.1803	-926.07953	800.87109	1221.1189	-980.03693	816.40112	1261.5553	-963.70105	732.94751	1264.09082	-790.87732	937.60602	857.54077	-772.69568	953.11041	1078.31873	-946.52777	964.24915	901.67023	-926.85126	969.50525	1068.70251	-904.21338	628.54608	816.05847	-942.77374	467.62009	838.63208	-1073.24097	242.48294	847.39636	-1145.5636	85.93099	893.13843	-1189.72461	83.34293	938.14526	-1012.43768	32.97221	893.98077	-757.89362	625.50909	1153.91187	-714.81879	509.0675	1125.63525	-680.17621	247.63969	1136.04529	-628.10486	66.46334	1098.77783	-654.68829	33.81836	1052.09033	-470.72491	67.90102	1101.07019	-900.76843	1676.21985	973.40387	NaN	NaN	NaN	NaN	NaN	NaN	NaN	NaN	NaN	NaN	NaN	NaN	NaN	NaN	NaN	NaN	NaN	NaN	NaN	NaN	NaN
22	0.21	-803.17932	1638.87708	897.11035	-775.0697	1631.44055	1026.28027	-931.37598	1580.07935	926.27722	-902.23718	1578.02136	1052.58264	-917.61334	1426.59924	971.14801	-949.81934	1097.46167	976.44672	-805.09955	1351.7085	965.25684	-764.69653	1178.84766	953.02289	-987.73621	1256.11499	1045.86902	-866.59668	1386.48315	807.38568	-832.54163	1192.57178	724.35559	-803.10535	1084.76587	705.99994	-688.92566	990.13434	695.0119	-571.49445	959.42047	751.6991	-603.07281	909.0954	713.83136	-515.13116	890.50024	719.49585	-845.87958	1378.91248	1129.30286	-916.81067	1191.43396	1215.47742	-931.87274	1070.0155	1229.76367	-942.17249	950.39148	1249.8678	-913.40735	799.76422	1222.7052	-967.19806	815.04175	1262.97949	-950.63696	731.87689	1265.74426	-778.98151	937.16534	859.29169	-760.32947	952.578	1080.36633	-934.80579	963.84546	903.79333	-914.77527	969.44031	1071.23376	-893.65643	628.08698	817.6062	-932.80066	467.26117	839.92279	-1067.62708	244.6884	847.48035	-1143.58557	89.6969	892.06708	-1187.71448	87.79705	936.62537	-1012.01318	33.03394	893.96967	-745.91199	625.61029	1154.26782	-703.68909	509.01639	1125.34509	-673.49426	246.41852	1134.95618	-624.05621	66.56835	1098.70862	-651.60791	36.41358	1051.41235	-466.14224	58.72377	1102.55811	-889.94989	1675.79041	975.5686	NaN	NaN	NaN	NaN	NaN	NaN	NaN	NaN	NaN	NaN	NaN	NaN	NaN	NaN	NaN	NaN	NaN	NaN	NaN	NaN	NaN
23	0.22	-792.38654	1639.24219	899.14606	-764.18475	1631.80261	1028.30469	-920.44562	1580.17053	928.3269	-891.24347	1578.09644	1054.63684	-906.95929	1426.78235	973.2804	-937.98718	1097.02283	977.96985	-794.15009	1352.00476	967.39978	-753.53967	1179.05872	955.2417	-976.81567	1255.29919	1047.75488	-856.00385	1386.18811	809.27258	-822.22919	1191.88843	726.42224	-793.16022	1084.04053	707.90778	-678.75519	990.08148	697.32153	-561.17023	960.23761	754.21985	-592.26447	909.72113	716.07697	-504.24158	891.64435	722.38293	-835.34021	1378.80579	1131.55334	-905.3692	1190.70862	1217.46777	-919.6474	1069.20044	1231.58997	-929.68915	949.46387	1251.52014	-900.24133	799.06946	1224.3562	-954.15332	814.04968	1264.53308	-937.13464	731.05438	1267.35242	-766.99164	937.02917	861.01495	-748.22296	952.5426	1082.41125	-922.80841	963.75476	905.72333	-902.65961	970.05103	1073.52844	-882.72229	627.72644	819.37299	-922.37451	467.14264	841.5036	-1061.39685	247.25397	847.73633	-1141.02661	93.98037	890.76526	-1185.76025	93.6111	935.05829	-1011.71387	33.07466	893.73297	-734.58484	626.09393	1155.25183	-693.38049	509.51004	1126.75537	-664.75476	247.12051	1136.98755	-618.51294	67.13013	1100.47571	-648.32892	38.22602	1053.1936	-461.50623	53.88588	1103.56165	-879.15973	1675.87854	977.65607	NaN	NaN	NaN	NaN	NaN	NaN	NaN	NaN	NaN	NaN	NaN	NaN	NaN	NaN	NaN	NaN	NaN	NaN	NaN	NaN	NaN
24	0.23	-781.61621	1640.21375	901.15045	-753.35699	1632.89746	1030.28076	-909.56696	1580.93811	930.46497	-880.16681	1578.97852	1056.55994	-895.98254	1427.64465	975.2757	-926.28064	1097.21277	979.22406	-783.30188	1352.82373	969.65509	-742.25879	1179.87817	957.47577	-965.9776	1255.15381	1049.7074	-845.31433	1386.42493	811.03284	-812.15088	1191.43359	728.4873	-783.60065	1083.46338	709.99603	-668.96655	989.80432	699.64838	-551.34509	960.53101	756.72485	-582.18237	909.87384	718.56592	-494.0159	892.34338	724.87445	-824.75494	1379.15381	1133.82788	-893.7536	1190.35486	1219.36926	-907.38287	1068.75354	1233.45007	-916.87366	948.89423	1253.14136	-886.53033	798.7099	1225.90503	-940.76154	813.45001	1266.03809	-923.00189	730.51147	1268.61743	-754.94385	937.45862	862.8642	-735.93323	953.13654	1084.22473	-910.66937	964.19824	907.26862	-890.84064	971.75439	1075.22034	-871.30127	627.78058	821.22278	-911.11163	467.23187	843.16388	-1054.48767	250.32347	848.12018	-1138.10498	99.03874	889.75635	-1182.75989	99.74363	933.66846	-1011.14264	33.08893	893.72302	-723.94812	628.03955	1157.18677	-683.86365	510.96469	1129.82056	-655.85504	248.96698	1139.64624	-614.82849	66.56277	1101.57104	-645.79498	39.44314	1054.60864	-458.68466	50.54061	1105.13879	-868.43848	1676.72705	979.68408	NaN	NaN	NaN	NaN	NaN	NaN	NaN	NaN	NaN	NaN	NaN	NaN	NaN	NaN	NaN	NaN	NaN	NaN	NaN	NaN	NaN
25	0.24	-770.76099	1641.40186	903.10718	-742.43622	1634.32556	1032.20984	-898.72528	1582.28284	932.59344	-869.19049	1580.51892	1058.64478	-885.02142	1428.99878	977.18298	-914.76215	1098.15491	980.39008	-772.46527	1354.18689	971.8515	-730.77985	1181.41858	959.79248	-955.1701	1255.93835	1051.79419	-834.30432	1387.19849	812.78998	-802.3653	1191.53296	730.70154	-774.26392	1083.30469	712.34015	-659.67474	989.57434	702.10272	-542.06116	960.34973	759.21423	-572.92218	909.65759	721.26416	-484.89517	892.13562	727.54474	-814.21783	1380.06079	1136.06506	-881.90485	1190.46753	1221.14075	-894.84808	1068.79443	1235.20496	-903.68756	948.80096	1254.72095	-872.36084	799.03442	1227.40686	-926.7868	813.24225	1267.42627	-908.47174	730.5451	1270.06665	-742.80475	938.43903	864.99017	-723.74359	954.78754	1086.19519	-898.50726	964.96576	908.46033	-879.12817	973.72717	1076.30005	-859.38232	628.17786	823.1297	-899.03442	467.61417	844.82739	-1047.17212	253.99181	848.79553	-1134.6637	104.67424	888.68018	-1179.24988	106.83133	932.90216	-1010.58331	33.21539	893.53296	-713.50122	630.32068	1159.20886	-673.80017	513.24115	1132.46521	-648.16974	250.30251	1142.02087	-613.13214	66.74352	1102.81824	-644.82587	40.23251	1055.67847	-457.38422	45.95605	1105.78503	-857.50262	1678.13025	981.57214	NaN	NaN	NaN	NaN	NaN	NaN	NaN	NaN	NaN	NaN	NaN	NaN	NaN	NaN	NaN	NaN	NaN	NaN	NaN	NaN	NaN
26	0.25	-759.81183	1642.75	905.04437	-731.42291	1635.8645	1034.10986	-887.86353	1583.99121	934.6709	-858.2879	1582.39587	1060.70691	-874.11096	1430.51331	979.07458	-903.45734	1099.69092	981.52655	-761.62018	1355.83691	974.00458	-719.31653	1183.38916	962.03967	-944.19073	1257.19714	1053.80652	-822.94476	1388.46082	814.67963	-792.70886	1192.21851	733.073	-764.73254	1083.81274	714.64319	-650.82733	989.37787	704.69775	-533.47101	959.66058	761.68597	-564.61963	909.08221	723.85394	-476.41336	891.52063	729.61786	-803.74921	1381.44617	1138.15735	-870.03198	1191.19373	1223.03674	-882.03815	1069.35657	1236.87512	-890.117	949.28851	1256.24939	-857.78571	799.58392	1228.74634	-912.33777	813.57886	1268.80457	-893.34967	731.02307	1271.41724	-730.83588	939.84644	867.33594	-711.75195	957.26593	1088.07654	-886.27069	966.07336	909.38464	-867.82635	976.00012	1077.00586	-846.92694	628.74731	825.01624	-885.85156	468.06787	846.56476	-1039.38	258.2652	849.85474	-1130.51855	111.22327	888.45245	-1174.97888	114.94029	932.76416	-1009.92676	33.39389	893.72333	-702.92102	633.0293	1161.79968	-663.16522	515.81177	1134.24829	-642.84668	251.04239	1144.37305	-612.56061	66.58232	1103.80054	-644.56195	40.52874	1056.81946	-456.66516	42.5147	1105.71985	-846.39691	1679.83435	983.47321	NaN	NaN	NaN	NaN	NaN	NaN	NaN	NaN	NaN	NaN	NaN	NaN	NaN	NaN	NaN	NaN	NaN	NaN	NaN	NaN	NaN
27	0.26	-748.78595	1644.29565	906.99719	-720.479	1637.59717	1036.07996	-876.97437	1585.8866	936.64008	-847.4248	1584.41992	1062.69727	-863.35596	1432.11841	980.9729	-892.16992	1101.51611	982.8429	-750.7229	1357.6554	976.13275	-707.86981	1185.55261	964.27789	-933.06067	1258.70386	1055.625	-811.57568	1390.21375	816.70636	-783.01031	1193.48718	735.61993	-755.64838	1084.91589	717.56879	-642.49829	989.28387	707.34827	-525.41455	958.51752	764.15948	-557.06134	908.11108	726.22522	-469.12689	890.03229	731.80664	-793.33679	1383.23755	1140.13708	-858.00763	1192.26941	1224.84302	-869.01978	1070.36096	1238.47156	-876.17029	950.22491	1257.76855	-842.69458	800.82153	1230.1925	-897.20013	814.30426	1270.13452	-878.0033	732.0722	1273.08972	-718.75006	941.59119	869.78284	-700.15527	960.19775	1089.99341	-874.11871	967.57141	910.33624	-856.5401	978.37653	1077.66589	-833.97125	629.56476	826.82123	-871.71295	468.70953	848.2099	-1030.87744	263.06653	851.05237	-1125.93933	118.22289	888.79474	-1169.42847	123.62659	933.32959	-1009.22052	33.65707	893.93677	-691.92761	635.55267	1164.07251	-652.91608	517.59735	1135.89539	-638.38641	251.64066	1146.04724	-611.15155	66.5826	1104.55896	-643.93054	40.97125	1057.8219	-455.521	40.66722	1105.64661	-835.26782	1681.7323	985.30579	NaN	NaN	NaN	NaN	NaN	NaN	NaN	NaN	NaN	NaN	NaN	NaN	NaN	NaN	NaN	NaN	NaN	NaN	NaN	NaN	NaN
